<svg width="17" height="21" viewBox="0 0 17 21" xmlns="http://www.w3.org/2000/svg">
    <path d="M3.337 15.335c0 .5.333.834.834.834h.834v2.92c0 .667.584 1.251 1.252 1.251.667 0 1.25-.584 1.25-1.251v-2.92h1.67v2.92c0 .667.583 1.251 1.25 1.251.668 0 1.252-.584 1.252-1.251v-2.92h.834c.5 0 .834-.334.834-.834V6.993H3.337v8.342zM1.25 6.993C.584 6.993 0 7.577 0 8.244v5.84c0 .667.584 1.25 1.251 1.25.668 0 1.252-.583 1.252-1.25v-5.84c0-.667-.584-1.251-1.252-1.251zm14.182 0c-.668 0-1.252.584-1.252 1.251v5.84c0 .667.584 1.25 1.252 1.25.667 0 1.251-.583 1.251-1.25v-5.84c0-.667-.584-1.251-1.251-1.251zm-4.171-4.839 1.084-1.084a.403.403 0 0 0 0-.584.403.403 0 0 0-.584 0l-1.251 1.251c-.584-.417-1.335-.584-2.169-.584-.834 0-1.585.167-2.252.501L4.922.403c-.167-.084-.5-.084-.668 0-.083.166-.083.5 0 .667L5.34 2.154C4.17 3.072 3.337 4.49 3.337 6.16h10.01c0-1.669-.834-3.17-2.085-4.005zM6.674 4.49h-.835v-.834h.835v.834zm4.17 0h-.834v-.834h.835v.834z" fill="#7ED321" fill-rule="evenodd" opacity=".7"/>
</svg>
