<svg width="17" height="21" viewBox="0 0 17 21" xmlns="http://www.w3.org/2000/svg">
    <path d="M16.493 15.926c-.302.699-.66 1.342-1.075 1.933-.565.807-1.028 1.365-1.385 1.674-.553.51-1.146.77-1.78.784-.456 0-1.005-.13-1.645-.392-.641-.262-1.23-.392-1.77-.392-.565 0-1.172.13-1.82.392-.65.263-1.173.4-1.573.413-.609.026-1.215-.242-1.82-.805-.387-.337-.87-.914-1.45-1.733-.62-.874-1.132-1.887-1.532-3.043C.215 13.51 0 12.3 0 11.13c0-1.34.29-2.496.87-3.465A5.102 5.102 0 0 1 2.69 5.823a4.9 4.9 0 0 1 2.463-.695c.483 0 1.117.15 1.905.443.785.295 1.29.444 1.51.444.166 0 .726-.174 1.676-.523.898-.323 1.656-.457 2.277-.404 1.683.136 2.947.799 3.787 1.994-1.505.912-2.249 2.189-2.234 3.827.013 1.276.476 2.338 1.386 3.181.413.392.873.694 1.385.909-.11.322-.228.63-.353.927zM12.634.74c0 1-.365 1.934-1.094 2.799-.879 1.027-1.942 1.621-3.095 1.527a3.114 3.114 0 0 1-.023-.379c0-.96.418-1.987 1.16-2.828.371-.425.842-.779 1.414-1.06.57-.279 1.11-.433 1.617-.459.015.134.021.268.021.4z" fill="#FFF" fill-rule="evenodd" opacity=".7"/>
</svg>
