<svg width="293" height="44" viewBox="0 0 293 44" xmlns="http://www.w3.org/2000/svg">
    <g transform="translate(.2)" fill-rule="nonzero" fill="none">
        <path d="M27.052 8.957c0 .265-.117.392-.342.392a.44.44 0 0 1-.42-.245c-.19-.544-.344-1.1-.46-1.664-.653-2.61-1.915-4.354-3.787-5.235-1.106-.519-3.092-.783-5.939-.783-1.301 0-2.808.049-4.51.147v14.973h1.428c3.082 0 5-.323 5.773-.98.773-.655 1.35-2.465 1.751-5.43.059-.421.225-.636.49-.636.263 0 .39.244.39.733v.656c0 .597-.048 1.595-.048 2.936v3.21c0 2.28 0 3.787.049 4.521s0 1.37 0 1.889c0 .518-.147.783-.44.783-.294 0-.676-.519-.744-1.566-.157-2.378-.754-3.915-1.771-4.649a4.578 4.578 0 0 0-2.603-.538h-4.275v11.89c0 2.085.166 3.308.49 3.67.322.362 1.467.538 3.414.538.596 0 .89.128.89.392s-.313.44-.93.44h-2.592a145.002 145.002 0 0 0-6.849-.147c-1.79 0-3.375 0-4.745.108a4.705 4.705 0 0 1-.685 0c-.391 0-.587-.137-.587-.42 0-.285.519-.431 1.565-.46 1.536-.07 2.378-.421 2.544-1.077.158-.439.225-.905.196-1.37V2.655a1.155 1.155 0 0 0-.568-.93 5.566 5.566 0 0 0-1.888-.342C.91 1.337.44 1.203.44.982c0-.323.323-.49.979-.49h4.696C8.724.421 11.023.388 13.013.394h7.533l3.327.098c.521 0 1.304-.049 2.348-.147.264 3.915.518 6.547.782 8.035.031.19.047.384.05.577zM54.594 26.083v1.566a29.913 29.913 0 0 0-.147 3.474v3.474c-4.174-.17-11.724-.251-22.65-.245h-2.054c-1.438 0-2.153-.137-2.153-.41 0-.275.225-.422.685-.422 1.634 0 2.671-.264 3.131-.685.294-.254.44-1.037.44-2.348V4.015a4.248 4.248 0 0 0-.293-2.055 2.123 2.123 0 0 0-1.84-.685h-1.232c-.372 0-.548-.117-.548-.362s.225-.372.685-.372h13.697c.323 0 .49.127.49.392 0 .264-.421.44-1.273.44-1.203 0-1.956.147-2.132.44-.177.294-.265 1.586-.265 3.866v11.645c0 2.375.066 7.709.196 16 .616 0 1.32.05 2.104.05a42.06 42.06 0 0 0 7.093-.392 5.489 5.489 0 0 0 4.207-3.131c.519-1.306.88-2.67 1.076-4.062.098-.518.245-.782.44-.782.196 0 .343.362.343 1.076zM88.055 17.471a17.794 17.794 0 0 1-4.58 12.4A14.812 14.812 0 0 1 61.1 29.8a17.803 17.803 0 0 1-4.647-12.379A17.617 17.617 0 0 1 61.07 4.994 15.007 15.007 0 0 1 72.547.003c4.25-.07 8.306 1.77 11.056 5.01a18.107 18.107 0 0 1 4.452 12.458zm-8.61.754c0-6.479-.767-11.248-2.3-14.308A5.02 5.02 0 0 0 72.4.835c-2.217 0-3.988 1.416-5.312 4.247-1.324 2.831-1.976 6.628-1.957 11.391 0 6.903 1.174 12.063 3.522 15.482a4.823 4.823 0 0 0 4.256 2.153 4.618 4.618 0 0 0 4.481-3.083c1.37-3.19 2.055-7.457 2.055-12.8zM122.787 17.471a17.794 17.794 0 0 1-4.579 12.4 14.812 14.812 0 0 1-22.326-.07 17.803 17.803 0 0 1-4.697-12.379 17.617 17.617 0 0 1 4.618-12.428A15.007 15.007 0 0 1 107.28.003a14.195 14.195 0 0 1 11.105 5.01 18.107 18.107 0 0 1 4.402 12.458zm-8.61.754c0-6.479-.766-11.264-2.299-14.356a5.019 5.019 0 0 0-4.794-3.034c-2.25 0-4.027 1.416-5.332 4.247-1.304 2.831-1.957 6.628-1.957 11.391 0 6.903 1.174 12.063 3.522 15.482a4.823 4.823 0 0 0 4.256 2.153 4.618 4.618 0 0 0 4.55-3.083c1.37-3.19 2.055-7.457 2.055-12.8zM159.868 41.252c0 1.833-1.19 2.746-3.571 2.74a9.42 9.42 0 0 1-7.191-2.887c-1.409-1.468-1.86-3.768-2.055-5.432l-.166-3.483c-.147-7.223-5.499-12.957-6.37-13.975a5.116 5.116 0 0 0-4.177-1.468v11.176c0 2.583 0 3.983.049 4.178-.04.49.235.95.685 1.145a6.916 6.916 0 0 0 2.592.323c.783 0 1.175.147 1.175.44 0 .265-.196.392-.588.392h-14.773c-.46 0-.685-.117-.685-.352s.665-.42 1.957-.48c1.105-.068 1.76-.323 1.957-.782.139-.68.188-1.374.146-2.065V5.444a25.89 25.89 0 0 0-.098-3.014 1.037 1.037 0 0 0-.635-.714 6.035 6.035 0 0 0-2.202-.294c-.724 0-1.076-.147-1.076-.44 0-.294.147-.362.44-.411.797-.073 1.597-.1 2.397-.079h9.833c4.56 0 7.68.362 9.344 1.077a7.074 7.074 0 0 1 3.13 2.544 6.528 6.528 0 0 1 1.174 3.768c0 3.131-1.63 5.447-4.891 6.948a22.195 22.195 0 0 1-6.36 1.468v.342c3.552.225 9.676 5.578 12.112 10.589a26.251 26.251 0 0 1 2.368 8.984c.255 2.936.665 4.775 1.223 5.5a2.23 2.23 0 0 0 1.712 1.105c.49 0 .734-.127.734-.391s-.186-.313-.567-.538a1.086 1.086 0 0 1-.558-.979c0-.88.49-1.321 1.468-1.321s1.467.538 1.467 1.664zm-16.29-33.518c0-4.208-1.663-6.312-4.99-6.312-1.076 0-1.751.362-2.005 1.076a28.631 28.631 0 0 0-.245 5.334v8.122c2.544 0 4.386-.652 5.528-1.957 1.135-1.272 1.712-3.356 1.712-6.263z" fill="#009ACC"/>
        <path d="M191.079 34.352c0 .196-.147.294-.44.294a4.265 4.265 0 0 1-.637 0c-1.141-.137-4.337-.206-9.588-.206h-3.767c-.978 0-1.516-.107-1.516-.41 0-.304.401-.431 1.223-.47a5.008 5.008 0 0 0 1.878-.411c.538-.245.812-.529.812-.862 0-.332.06-.724.098-1.605V16.884H167.5v15.12c0 .851.685 1.35 1.957 1.516.979.128 1.595.226 1.761.265.148.036.25.17.245.323 0 .195-.166.293-.49.293-.322 0-1.555 0-3.375-.098-1.82-.097-2.592-.049-2.25-.049l-3.013.098c-1.81.069-3.532.098-5.156.098h-.49c-.587 0-.88-.147-.88-.44 0-.264.225-.392.685-.392a6.143 6.143 0 0 0 3.18-.587c.254-.156.39-1.027.39-2.593V3.428c0-1.047-.283-1.673-.85-1.889a8.804 8.804 0 0 0-2.76-.313c-.43 0-.645-.127-.645-.391s.176-.264.538-.294h14.48c.45 0 .685.167.685.49a.382.382 0 0 1-.264.42c-.548.075-1.1.115-1.654.118-.92 0-1.497.235-1.712.616a4.268 4.268 0 0 0-.333 2.026v11.548h1.155c3.219.127 6.721.098 10.488-.098V4.71c0-2.222-.802-3.338-2.407-3.338-1.076 0-1.604-.147-1.604-.44 0-.294.205-.392.626-.392h14.783c.323 0 .49.098.49.294 0 .196-.607.391-1.81.49-1.204.097-1.957.351-2.25.753a6.401 6.401 0 0 0-.441 3.053v24.044c0 2.114.264 3.396.802 3.837a4.891 4.891 0 0 0 2.77.753c.635.03.929.225.929.587zM224.246 17.471a17.794 17.794 0 0 1-4.579 12.4 14.812 14.812 0 0 1-22.376-.07 17.803 17.803 0 0 1-4.647-12.379 17.617 17.617 0 0 1 4.618-12.428A15.007 15.007 0 0 1 208.738.003a14.215 14.215 0 0 1 11.056 5.01 18.107 18.107 0 0 1 4.452 12.458zm-8.61.754c0-6.479-.766-11.264-2.3-14.356a5.029 5.029 0 0 0-4.793-3.034c-2.224 0-3.995 1.416-5.313 4.247-1.317 2.831-1.97 6.628-1.957 11.391 0 6.903 1.174 12.063 3.523 15.482a4.823 4.823 0 0 0 4.255 2.153 4.618 4.618 0 0 0 4.55-3.083c1.357-3.19 2.035-7.457 2.035-12.8zM256.68.864c0 .245-.558.382-1.664.411-1.37 0-2.201.264-2.495.685-.133.26-.2.55-.196.842v20.786c0 7.763-3.685 11.645-11.055 11.645-3.79 0-6.725-1.158-8.806-3.474-1.565-1.735-2.348-4.802-2.348-9.199V3.722c0-1.047-.166-1.684-.49-1.909a8.804 8.804 0 0 0-3.081-.538c-.362 0-.538-.166-.538-.391s.293-.44.88-.44h13.698c.548 0 .831.166.831.489 0 .323-.508.44-1.516.44-1.438 0-2.201.264-2.3.783a5.51 5.51 0 0 0-.097.979v18.397c0 2.656.049 4.339.147 5.05a7.34 7.34 0 0 0 1.81 4.61 6.505 6.505 0 0 0 4.745 1.76 5.645 5.645 0 0 0 4.892-2.152c1.272-1.732 1.957-4.825 1.957-9.297V3.38a1.723 1.723 0 0 0-.724-1.663 4.099 4.099 0 0 0-1.889-.294c-1.164 0-1.741-.225-1.741-.587s.225-.392.685-.392c.46 0 1.203 0 2.152.069.95.068 1.663.078 2.153.078l.831-.147h2.69c.96 0 1.468.137 1.468.421zM283.595 24.899a11.48 11.48 0 0 0-2.25 3.278c-.676 1.8-.48 5.275 2.25 6.42-.715 0-4.53-.147-5.538-.147h-15.85c-.978 0-1.878 0-2.593.059-.978.059-1.81.088-2.592.088-.43 0-.636-.117-.636-.343a.91.91 0 0 1 .195-.489c.646-.978 1.908-3.23 3.767-6.752L270.72 7.832c1.566-2.805 2.593-4.795 3.082-5.97-.783-.068-2.25-.098-4.403-.098-3.033 0-5.283.653-6.75 1.958a13.065 13.065 0 0 0-3.67 5.578c-.195.587-.43.88-.684.88-.255 0-.392-.146-.392-.44.005-.22.055-.436.147-.636.254-1.246.858-4.182 1.81-8.807 1.761.26 5.805.391 12.132.391 2.276 0 4.51-.075 6.702-.225 1.076-.078 1.761-.118 2.055-.118.489 0 .978 0 1.32.05a21.718 21.718 0 0 1-1.956 4.315c-1.5 2.675-3.75 6.717-6.751 12.125l-8.894 16.44h6.399a12.423 12.423 0 0 0 6.379-1.614c2.74-1.957 3.219-3.816 6.35-6.762z" fill="#009ACC"/>
        <ellipse fill="#0062A5" cx="288.105" cy="29.968" rx="4.53" ry="4.531"/>
    </g>
</svg>
