<svg width="173" height="26" viewBox="0 0 173 26" xmlns="http://www.w3.org/2000/svg">
    <g fill-rule="nonzero" fill="none">
        <path d="M15.985 5.293c0 .156-.069.231-.202.231a.26.26 0 0 1-.248-.144 7.71 7.71 0 0 1-.272-.983c-.386-1.542-1.131-2.574-2.238-3.094C12.372.996 11.2.84 9.516.84c-.769 0-1.66.03-2.665.087v8.848h.844c1.821 0 2.954-.191 3.411-.579.457-.387.798-1.457 1.035-3.21.035-.248.133-.375.289-.375.156 0 .231.145.231.434v.387c0 .353-.029.943-.029 1.735v1.897c0 1.347 0 2.238.03 2.671.028.434 0 .81 0 1.116 0 .307-.088.463-.261.463-.173 0-.399-.307-.44-.925-.092-1.405-.445-2.313-1.046-2.747a2.705 2.705 0 0 0-1.538-.318H6.851v7.026c0 1.232.098 1.954.289 2.168.19.214.867.318 2.018.318.352 0 .526.076.526.232 0 .156-.185.26-.55.26H7.603a85.683 85.683 0 0 0-4.046-.087c-1.058 0-1.995 0-2.804.064-.135.01-.27.01-.405 0-.231 0-.347-.081-.347-.249 0-.167.306-.254.925-.272.908-.04 1.405-.248 1.503-.636.094-.259.133-.534.116-.81V1.569a.682.682 0 0 0-.336-.548A3.289 3.289 0 0 0 1.093.817C.538.79.26.711.26.58.26.39.45.29.838.29h2.775C5.155.249 6.513.23 7.69.234h4.452l1.966.058c.308 0 .77-.029 1.387-.087.156 2.313.306 3.869.463 4.748.018.113.027.227.028.34zM32.26 15.413v.925a17.676 17.676 0 0 0-.087 2.053v2.053c-2.466-.1-6.928-.149-13.384-.145h-1.214c-.85 0-1.272-.08-1.272-.243 0-.162.133-.248.405-.248.966 0 1.578-.157 1.85-.405.174-.15.26-.613.26-1.388V2.373a2.51 2.51 0 0 0-.173-1.215 1.254 1.254 0 0 0-1.087-.404h-.728c-.22 0-.324-.07-.324-.214 0-.145.133-.22.404-.22h8.094c.191 0 .29.075.29.231 0 .156-.25.26-.752.26-.711 0-1.156.087-1.26.26-.105.174-.157.937-.157 2.285v6.881c0 1.403.039 4.555.116 9.455.364 0 .78.029 1.243.029a24.854 24.854 0 0 0 4.192-.231 3.243 3.243 0 0 0 2.486-1.851c.306-.772.52-1.577.636-2.4.057-.306.144-.462.26-.462.115 0 .202.214.202.636zM52.032 10.324c.073 2.7-.896 5.323-2.705 7.327a8.752 8.752 0 0 1-13.222-.04 10.52 10.52 0 0 1-2.747-7.316 10.41 10.41 0 0 1 2.73-7.344c1.723-1.924 4.199-3 6.78-2.95a8.388 8.388 0 0 1 6.534 2.962 10.7 10.7 0 0 1 2.63 7.36zm-5.087.445c0-3.828-.453-6.646-1.359-8.454A2.966 2.966 0 0 0 42.782.493c-1.31 0-2.357.837-3.14 2.51-.782 1.673-1.167 3.917-1.155 6.731 0 4.079.693 7.128 2.08 9.148a2.85 2.85 0 0 0 2.516 1.273 2.729 2.729 0 0 0 2.648-1.822c.809-1.885 1.214-4.406 1.214-7.564zM72.556 10.324c.072 2.7-.896 5.323-2.706 7.327a8.752 8.752 0 0 1-13.193-.04 10.52 10.52 0 0 1-2.775-7.316 10.41 10.41 0 0 1 2.73-7.344c1.723-1.924 4.199-3 6.78-2.95a8.388 8.388 0 0 1 6.563 2.962 10.7 10.7 0 0 1 2.601 7.36zm-5.087.445c0-3.828-.453-6.656-1.36-8.483A2.966 2.966 0 0 0 63.278.493c-1.33 0-2.38.837-3.15 2.51-.772 1.673-1.157 3.917-1.157 6.731 0 4.079.694 7.128 2.081 9.148a2.85 2.85 0 0 0 2.515 1.273c1.2.05 2.29-.69 2.688-1.822.81-1.885 1.215-4.406 1.215-7.564zM94.468 24.376c0 1.083-.704 1.623-2.11 1.62a5.567 5.567 0 0 1-4.25-1.707c-.833-.867-1.098-2.226-1.214-3.21l-.098-2.058c-.087-4.268-3.25-7.656-3.764-8.258a3.023 3.023 0 0 0-2.469-.867V16.5c0 1.526 0 2.353.03 2.47a.677.677 0 0 0 .404.676c.494.16 1.014.225 1.532.19.462 0 .694.087.694.26 0 .157-.116.232-.347.232h-8.73c-.272 0-.405-.07-.405-.208 0-.139.393-.249 1.157-.284.653-.04 1.04-.19 1.156-.462.082-.401.111-.812.087-1.22V3.217a15.299 15.299 0 0 0-.058-1.781.613.613 0 0 0-.376-.422 3.566 3.566 0 0 0-1.3-.174c-.429 0-.637-.086-.637-.26 0-.173.087-.214.26-.243.471-.043.944-.058 1.417-.046h5.81c2.694 0 4.538.214 5.521.636a4.18 4.18 0 0 1 1.85 1.504c.456.652.698 1.43.694 2.226 0 1.85-.963 3.219-2.89 4.106-1.204.472-2.47.765-3.758.867v.202c2.098.133 5.717 3.297 7.157 6.257a15.512 15.512 0 0 1 1.399 5.309c.15 1.735.393 2.822.723 3.25.212.368.589.611 1.011.653.29 0 .434-.075.434-.231 0-.156-.11-.185-.335-.318a.642.642 0 0 1-.33-.578c0-.52.29-.781.867-.781.578 0 .868.318.868.983zM84.842 4.57c0-2.486-.983-3.73-2.949-3.73-.636 0-1.035.214-1.185.636a16.918 16.918 0 0 0-.145 3.152v4.8c1.503 0 2.592-.386 3.267-1.157.67-.752 1.012-1.983 1.012-3.7z" fill="#FFF"/>
        <path d="M112.91 20.3c0 .115-.087.173-.26.173-.125.009-.25.009-.376 0-.674-.081-2.563-.122-5.666-.122h-2.225c-.579 0-.897-.063-.897-.243 0-.179.237-.254.723-.277a2.96 2.96 0 0 0 1.11-.243c.318-.145.48-.312.48-.51 0-.196.035-.427.058-.947V9.977h-6.88v8.934c0 .503.405.798 1.156.897.578.075.943.133 1.04.156a.19.19 0 0 1 .145.19c0 .116-.098.174-.289.174-.19 0-.919 0-1.994-.058-1.076-.058-1.532-.029-1.33-.029l-1.78.058c-1.07.04-2.088.058-3.047.058h-.29c-.346 0-.52-.087-.52-.26 0-.156.133-.232.405-.232a3.63 3.63 0 0 0 1.879-.347c.15-.092.231-.607.231-1.532V2.026c0-.619-.168-.99-.503-1.116a5.202 5.202 0 0 0-1.63-.185c-.255 0-.382-.076-.382-.232 0-.156.104-.156.318-.173h8.557c.266 0 .404.098.404.289a.226.226 0 0 1-.156.249c-.324.044-.65.067-.977.069-.543 0-.884.139-1.012.364-.161.377-.229.788-.196 1.197v6.824h.682c1.902.075 3.972.058 6.198-.058v-6.47c0-1.313-.474-1.973-1.423-1.973-.635 0-.948-.086-.948-.26 0-.173.122-.231.37-.231h8.736c.19 0 .29.058.29.173 0 .116-.36.232-1.07.29-.712.057-1.157.208-1.33.445a3.783 3.783 0 0 0-.26 1.804V17.24c0 1.25.156 2.007.474 2.267a2.89 2.89 0 0 0 1.636.445c.376.017.55.133.55.347zM132.509 10.324c.072 2.7-.897 5.323-2.706 7.327a8.752 8.752 0 0 1-13.222-.04 10.52 10.52 0 0 1-2.746-7.316 10.41 10.41 0 0 1 2.729-7.344c1.723-1.924 4.2-3 6.781-2.95a8.4 8.4 0 0 1 6.533 2.962 10.7 10.7 0 0 1 2.63 7.36zm-5.088.445c0-3.828-.453-6.656-1.358-8.483A2.972 2.972 0 0 0 123.23.493c-1.314 0-2.36.837-3.14 2.51-.778 1.673-1.163 3.917-1.156 6.731 0 4.079.694 7.128 2.082 9.148a2.85 2.85 0 0 0 2.514 1.273c1.2.05 2.29-.69 2.689-1.822.801-1.885 1.202-4.406 1.202-7.564zM151.674.51c0 .145-.33.226-.983.244-.81 0-1.3.156-1.474.404a1.058 1.058 0 0 0-.116.498v12.282c0 4.588-2.177 6.882-6.533 6.882-2.239 0-3.973-.685-5.203-2.053-.925-1.026-1.387-2.838-1.387-5.436V2.199c0-.619-.099-.994-.29-1.127a5.202 5.202 0 0 0-1.82-.318c-.214 0-.318-.099-.318-.232s.173-.26.52-.26h8.094c.324 0 .491.098.491.29 0 .19-.3.26-.896.26-.85 0-1.3.155-1.359.462-.036.19-.055.384-.057.578v10.872c0 1.569.029 2.563.086 2.984a4.338 4.338 0 0 0 1.07 2.723 3.844 3.844 0 0 0 2.804 1.041 3.336 3.336 0 0 0 2.89-1.272c.752-1.024 1.157-2.85 1.157-5.494V1.996a1.018 1.018 0 0 0-.428-.982 2.422 2.422 0 0 0-1.116-.174c-.688 0-1.029-.133-1.029-.347 0-.214.133-.231.405-.231s.71 0 1.272.04c.56.04.983.047 1.272.047l.491-.087h1.59c.566 0 .867.08.867.249zM167.579 14.713a6.783 6.783 0 0 0-1.33 1.937c-.399 1.064-.283 3.117 1.33 3.794-.422 0-2.677-.087-3.273-.087h-9.365c-.579 0-1.11 0-1.532.035-.579.034-1.07.052-1.533.052-.254 0-.375-.07-.375-.203a.538.538 0 0 1 .115-.289c.382-.578 1.128-1.908 2.226-3.99l6.128-11.334c.925-1.658 1.532-2.834 1.822-3.528-.463-.04-1.33-.057-2.602-.057-1.792 0-3.122.385-3.99 1.156a7.72 7.72 0 0 0-2.167 3.296c-.116.347-.255.52-.405.52-.15 0-.231-.086-.231-.26a.954.954 0 0 1 .087-.375c.15-.737.506-2.471 1.07-5.205 1.04.154 3.43.232 7.168.232 1.345 0 2.665-.045 3.96-.133.636-.047 1.04-.07 1.214-.07.29 0 .578 0 .78.03-.29.889-.678 1.744-1.156 2.55-.886 1.58-2.216 3.968-3.989 7.164l-5.255 9.715h3.781a7.341 7.341 0 0 0 3.77-.954c1.618-1.157 1.902-2.255 3.752-3.996z" fill="#FFF"/>
        <circle fill="#8CC7E2" cx="170.244" cy="17.708" r="2.677"/>
    </g>
</svg>
