<svg width="31" height="31" viewBox="0 0 31 31" xmlns="http://www.w3.org/2000/svg">
    <g transform="translate(.2 .6)" fill="none" fill-rule="evenodd">
        <circle fill="#FFF" cx="15" cy="15" r="15"/>
        <path d="m20.167 19.147-3.36-3.359c.601-.714.964-1.634.964-2.638a4.112 4.112 0 0 0-4.107-4.107 4.112 4.112 0 0 0-4.107 4.107 4.112 4.112 0 0 0 4.107 4.107 4.086 4.086 0 0 0 2.638-.964l3.36 3.36a.356.356 0 0 0 .505 0 .357.357 0 0 0 0-.506zm-6.503-2.604a3.397 3.397 0 0 1-3.393-3.393 3.397 3.397 0 0 1 3.393-3.393 3.397 3.397 0 0 1 3.393 3.393 3.397 3.397 0 0 1-3.393 3.393z" stroke="#000" stroke-width="1.2" fill="#000" fill-rule="nonzero"/>
    </g>
</svg>
