<svg width="42" height="43" viewBox="0 0 42 43" xmlns="http://www.w3.org/2000/svg">
    <g transform="translate(1.42 1.125)" fill="none" fill-rule="evenodd">
        <ellipse stroke="#FFF" stroke-width="1.2" opacity=".5" cx="19.768" cy="20.333" rx="19.768" ry="20.333"/>
        <path d="M24.278 23.103c-.85 0-1.6.446-2.04 1.123l-5.475-2.815c.09-.262.148-.54.148-.834 0-.293-.058-.571-.148-.833l5.474-2.816a2.437 2.437 0 0 0 2.04 1.123c1.355 0 2.456-1.132 2.456-2.525S25.632 13 24.278 13s-2.456 1.133-2.456 2.526c0 .293.059.571.149.833l-5.475 2.816a2.437 2.437 0 0 0-2.04-1.124C13.1 18.051 12 19.184 12 20.577c0 1.393 1.101 2.526 2.456 2.526.85 0 1.599-.447 2.04-1.123l5.475 2.815c-.09.262-.149.54-.149.834 0 1.393 1.102 2.525 2.456 2.525 1.354 0 2.455-1.132 2.455-2.525s-1.101-2.526-2.455-2.526z" fill="#FFF" fill-rule="nonzero"/>
    </g>
</svg>
