<svg width="20" height="21" viewBox="0 0 20 21" xmlns="http://www.w3.org/2000/svg">
    <path d="M9.98.34c5.51 0 9.978 4.468 9.978 9.98 0 5.51-4.468 9.978-9.979 9.978C4.468 20.298 0 15.83 0 10.32 0 4.808 4.468.34 9.98.34zm1.873 6.4c-.32.044-.633.195-.875.415a.604.604 0 0 0 .168-.333c-.853.544-1.35 1.642-1.753 2.707-.317-.307-.597-.548-.849-.682-.705-.379-1.549-.774-2.873-1.265-.04.438.217 1.02.958 1.408-.16-.022-.454.027-.69.083.096.502.409.915 1.255 1.115-.387.026-.586.114-.768.303.176.35.606.76 1.379.676-.86.37-.35 1.056.35.954A2.97 2.97 0 0 1 4 12.232c2.82 3.843 8.95 2.273 9.864-1.428.684.005 1.087-.238 1.336-.505-.394.067-.966-.002-1.269-.129.63-.051 1.056-.338 1.22-.726-.227.14-.931.292-1.32.147a4.75 4.75 0 0 0-.062-.256c-.296-1.089-1.31-1.966-2.374-1.86.086-.034.173-.067.26-.096.117-.042.804-.154.696-.396-.091-.213-.93.161-1.088.21.208-.078.553-.213.59-.453z" fill="#FFF" fill-rule="evenodd"/>
</svg>
